<svg xmlns="http://www.w3.org/2000/svg" xmlns:xlink="http://www.w3.org/1999/xlink" fill="none" version="1.1" width="29.97493553161621" height="30" viewBox="0 0 29.97493553161621 30"><defs><clipPath id="master_svg0_6_1278"><rect x="0" y="0" width="29.97493553161621" height="30" rx="0"/></clipPath></defs><g clip-path="url(#master_svg0_6_1278)"><g><path d="M1.4979116916656494,23.750000953674316Q1.4979116916656494,25.199500953674317,2.522129991665649,26.224600953674315Q3.5466916916656492,27.250000953674316,4.9958216916656495,27.250000953674316L24.97911169166565,27.250000953674316Q26.42821169166565,27.250000953674316,27.452811691665648,26.224600953674315Q28.47701169166565,25.199500953674317,28.47701169166565,23.750000953674316L28.47701169166565,11.250000953674316Q28.47701169166565,9.800500953674316,27.452811691665648,8.775420953674317Q26.42821169166565,7.750000953674316,24.97911169166565,7.750000953674316L24.35461169166565,7.750000953674316Q24.00121169166565,7.750000953674316,23.68501169166565,7.591790953674316Q23.36881169166565,7.433520953674316,23.15651169166565,7.150320953674316L20.38391169166565,3.4503179536743165Q20.13611169166565,3.1197389536743163,19.766811691665648,2.9349029536743165Q19.39731169166565,2.7500009536743164,18.98411169166565,2.7500009536743164L10.99081169166565,2.7500009536743164Q10.57766169166565,2.7500009536743164,10.20817169166565,2.9349029536743165Q9.83879169166565,3.1197429536743164,9.59107169166565,3.4503219536743166L6.818391691665649,7.150320953674316Q6.606171691665649,7.433520953674316,6.28989169166565,7.591790953674316Q5.97373169166565,7.750000953674316,5.62030169166565,7.750000953674316L4.9958216916656495,7.750000953674316Q3.5466916916656492,7.750000953674316,2.5221305916656496,8.775420953674317Q1.4979116916656494,9.800500953674316,1.4979116916656494,11.250000953674316L1.4979116916656494,23.750000953674316ZM4.9958216916656495,25.250000953674316Q4.375611691665649,25.250000953674316,3.9369316916656496,24.811000953674316Q3.4979116916656494,24.371600953674317,3.4979116916656494,23.750000953674316L3.4979116916656494,11.250000953674316Q3.4979116916656494,10.628430953674316,3.9369316916656496,10.189040953674317Q4.375611691665649,9.750000953674316,4.9958216916656495,9.750000953674316L5.62030169166565,9.750000953674316Q6.44622169166565,9.750000953674316,7.18491169166565,9.380350953674316Q7.923481691665649,9.010760953674318,8.41887169166565,8.349680953674316L11.11637169166565,4.750000953674316L18.85861169166565,4.750000953674316L21.55611169166565,8.349680953674316Q22.05141169166565,9.010750953674316,22.79001169166565,9.380350953674316Q23.52871169166565,9.750000953674316,24.35461169166565,9.750000953674316L24.97911169166565,9.750000953674316Q25.59931169166565,9.750000953674316,26.03801169166565,10.189040953674317Q26.47701169166565,10.628440953674318,26.47701169166565,11.250000953674316L26.47701169166565,23.750000953674316Q26.47701169166565,24.371600953674317,26.03801169166565,24.811000953674316Q25.59931169166565,25.250000953674316,24.97911169166565,25.250000953674316L4.9958216916656495,25.250000953674316Z" fill-rule="evenodd" fill="#F9F9F9" fill-opacity="1"/></g><g><path d="M10.747485766662598,20.49234Q12.503666766662597,22.25,14.987466766662598,22.25Q17.4712667666626,22.25,19.227446766662595,20.49234Q20.983246766662596,18.735039999999998,20.983246766662596,16.25Q20.983246766662596,13.76496,19.227446766662595,12.007655Q17.4712667666626,10.25,14.987466766662598,10.25Q12.503676766662597,10.25,10.747486766662597,12.007654Q8.991646766662598,13.76496,8.991646766662598,16.25Q8.991646766662598,18.735039999999998,10.747485766662598,20.49234ZM17.812646766662596,19.07872Q16.642346766662598,20.25,14.987466766662598,20.25Q13.332586766662597,20.25,12.162286766662598,19.07872Q10.991646766662598,17.9071,10.991646766662598,16.25Q10.991646766662598,14.5929,12.162286766662598,13.42128Q13.332586766662597,12.25,14.987466766662598,12.25Q16.642346766662598,12.25,17.812646766662596,13.42128Q18.983286766662598,14.5929,18.983286766662598,16.25Q18.983286766662598,17.9071,17.812646766662596,19.07872Z" fill-rule="evenodd" fill="#F9F9F9" fill-opacity="1"/></g></g></svg>