<svg xmlns="http://www.w3.org/2000/svg" xmlns:xlink="http://www.w3.org/1999/xlink" fill="none" version="1.1" width="16" height="16" viewBox="0 0 16 16"><defs><clipPath id="master_svg0_1_276"><rect x="0" y="0" width="16" height="16" rx="0"/></clipPath></defs><g clip-path="url(#master_svg0_1_276)"><g transform="matrix(1,0,0,-1,0,30.5)"><g><path d="M3.92242,18.03125Q4.54499,18.46875,5.29207,18.21875Q6.53721,17.75,8.031369999999999,17.75Q10.9886,17.84375,12.7318,19.3125Q14.475,20.8125,14.5061,22.75Q14.475,24.6875,12.7318,26.1875Q10.9886,27.6562,8.031369999999999,27.75Q5.07417,27.6562,3.33098,26.1875Q1.58779,24.6875,1.55666,22.75Q1.55666,21.21875,2.67729,19.96875Q3.08196,19.5,3.05083,18.84375Q2.95744,18,2.67729,17.3125Q3.48662,17.71875,3.92242,18.03125ZM0.716196,16.75Q0.809582,16.875,0.871839,17Q1.40102,17.8125,1.55666,18.96875Q0.0936284,20.59375,0.0625,22.75Q0.0936284,24.5625,1.15199,26.0312Q2.21036,27.5,4.01581,28.375Q5.79013,29.2188,8.031369999999999,29.25Q10.2726,29.2188,12.0469,28.375Q13.8524,27.5,14.9107,26.0312Q15.9691,24.5625,16.0002,22.75Q15.9691,20.9375,14.9107,19.46875Q13.8524,18,12.0469,17.125Q10.2726,16.28125,8.031369999999999,16.25Q6.28818,16.25,4.79402,16.8125Q4.20258,16.375,3.11308,15.84375Q2.39713,15.53125,1.52553,15.34375L1.49441,15.34375L1.46328,15.34375Q1.27651,15.28125,1.0586090000000001,15.28125Q1.0274809999999999,15.28125,1.0274809999999999,15.28125Q0.809582,15.25,0.560554,15.25Q0.218142,15.25,0.0936284,15.5625Q0.00024319999999999897,15.875,0.187014,16.09375Q0.404912,16.28125,0.560554,16.53125Q0.622811,16.625,0.716196,16.75Z" fill="#6B7280" fill-opacity="1" style="mix-blend-mode:passthrough"/></g></g></g></svg>