<svg xmlns="http://www.w3.org/2000/svg" xmlns:xlink="http://www.w3.org/1999/xlink" fill="none" version="1.1" width="16" height="16" viewBox="0 0 16 16"><defs><clipPath id="master_svg0_1_267"><rect x="0" y="0" width="16" height="16" rx="0"/></clipPath></defs><g clip-path="url(#master_svg0_1_267)"><g transform="matrix(1,0,0,-1,0,30.5)"><g><path d="M7.0625,15.625L6.96875,15.6875L7.0625,15.625L6.96875,15.6875L1.5,20.78125Q0.03125,22.1875,0,24.21875L0,24.3125Q0.03125,26,1.0625,27.25Q2.0625,28.4688,3.71875,28.8125Q5.65625,29.1562,7.21875,28.0625Q7.65625,27.7812,8,27.375Q8.1875,27.5938,8.4375,27.7812Q8.59375,27.9375,8.78125,28.0625Q10.3438,29.1562,12.2812,28.8438Q13.9375,28.5,14.9375,27.25Q15.9688,26,16,24.3125L16,24.21875Q15.9688,22.1875,14.5,20.78125L9.03125,15.6875L8.9375,15.625Q8.53125,15.25,8,15.25Q7.46875,15.25,7.0625,15.625ZM7.46875,25.7188L7.4375,25.75L6.875,26.375Q6.3125,27,5.5625,27.25Q4.8125,27.5,4,27.3438Q2.90625,27.125,2.21875,26.2812Q1.53125,25.4688,1.5,24.3125L1.5,24.21875Q1.53125,22.84375,2.53125,21.875L8,16.78125L13.4688,21.875Q14.4688,22.84375,14.5,24.21875L14.5,24.3125Q14.4688,25.4688,13.7812,26.2812Q13.0938,27.125,12,27.3438Q11.1875,27.5,10.4375,27.25Q9.6875,27,9.125,26.375L8.5625,25.75L8.53125,25.7188Q8.3125,25.5,8,25.5Q7.6875,25.5,7.46875,25.7188Z" fill="#6B7280" fill-opacity="1" style="mix-blend-mode:passthrough"/></g></g></g></svg>