<svg xmlns="http://www.w3.org/2000/svg" xmlns:xlink="http://www.w3.org/1999/xlink" fill="currentColor" version="1.1" width="20" height="28" viewBox="0 0 20 28"><defs><clipPath id="master_svg0_148_7835"><rect x="0" y="4" width="20" height="20" rx="0"/></clipPath></defs><g><rect x="0" y="0" width="20" height="28" rx="0" fill="#000000" fill-opacity="0" style="mix-blend-mode:passthrough"/><g clip-path="url(#master_svg0_148_7835)"><g transform="matrix(1,0,0,-1,0,43.859375)"><g><path d="M1.875,36.9296875Q1.09375,36.8905875,0.546875,36.3827875Q0.0390625,35.8358875,0,35.0546875Q0.0390625,34.1171875,0.742188,33.5702875L9.25781,27.1640675Q10,26.6953075,10.7422,27.1640675L19.2578,33.5702875Q19.9609,34.1171875,20,35.0546875Q19.9609,35.8358875,19.4531,36.3827875Q18.9062,36.8905875,18.125,36.9296875L1.875,36.9296875ZM0,32.5546875L0,24.4296875L0,32.5546875L0,24.4296875Q0.0390625,23.3749975,0.742188,22.6718755Q1.44531,21.96875,2.5,21.9296875L17.5,21.9296875Q18.5547,21.96875,19.2578,22.6718755Q19.9609,23.3749975,20,24.4296875L20,32.5546875L11.4844,26.1874975Q10.8203,25.6796875,10,25.6796875Q9.17969,25.6796875,8.51562,26.1874975L0,32.5546875Z" fill="current" fill-opacity="1" style="mix-blend-mode:passthrough"/></g></g></g></g></svg>