<svg xmlns="http://www.w3.org/2000/svg" xmlns:xlink="http://www.w3.org/1999/xlink" fill="none" version="1.1" width="14" height="16" viewBox="0 0 14 16"><defs><clipPath id="master_svg0_148_1826"><rect x="0" y="0" width="14" height="16" rx="0"/></clipPath></defs><g clip-path="url(#master_svg0_148_1826)"><g transform="matrix(1,0,0,-1,0,32.6875)"><g><path d="M4.5,27.84375L4.5,26.34375L4.5,27.84375L4.5,26.34375L9.5,26.34375L9.5,27.84375Q9.46875,28.90625,8.78125,29.62495Q8.0625,30.31255,7,30.34375Q5.9375,30.31255,5.21875,29.62495Q4.53125,28.90625,4.5,27.84375ZM2.5,26.34375L2.5,27.84375L2.5,26.34375L2.5,27.84375Q2.5625,29.74995,3.8125,31.03125Q5.09375,32.28125,7,32.34375Q8.90625,32.28125,10.1875,31.03125Q11.4375,29.74995,11.5,27.84375L11.5,26.34375L12,26.34375Q12.8438,26.3125,13.4062,25.75Q13.9688,25.1875,14,24.34375L14,18.34375Q13.9688,17.5,13.4062,16.9375Q12.8438,16.375,12,16.34375L2,16.34375Q1.15625,16.375,0.59375,16.9375Q0.03125,17.5,0,18.34375L0,24.34375Q0.03125,25.1875,0.59375,25.75Q1.15625,26.3125,2,26.34375L2.5,26.34375Z" fill="#9CA3AF" fill-opacity="1" style="mix-blend-mode:passthrough"/></g></g></g></svg>