<svg xmlns="http://www.w3.org/2000/svg" xmlns:xlink="http://www.w3.org/1999/xlink" fill="none" version="1.1" width="18" height="16" viewBox="0 0 18 16"><defs><clipPath id="master_svg0_1_285"><rect x="0" y="0" width="18" height="16" rx="0"/></clipPath></defs><g><rect x="0" y="0" width="18" height="16" rx="0" fill="#000000" fill-opacity="0" style="mix-blend-mode:passthrough"/><g clip-path="url(#master_svg0_1_285)"><g transform="matrix(1,0,0,-1,0,32.5)"><g><path d="M12.8571,24.28125L12.8571,24.75L12.8571,24.28125L12.8571,24.75L12.8571,25.75Q12.825,26.21875,12.3429,26.25L11.3143,26.25L9.32143,26.25Q8.06786,26.21875,7.13571,25.53125Q6.20357,24.875,5.81786,23.75Q5.65714,24.1875,5.65714,24.75Q5.68929,26.25,6.71786,27.2188Q7.71429,28.2188,9.25714,28.25L10.8,28.25L12.3429,28.25Q12.825,28.2812,12.8571,28.75L12.8571,29.75L12.8571,30.2188L16.2643,27.25L12.8571,24.28125ZM10.8,24.75L11.3143,24.75L10.8,24.75L11.3143,24.75L11.3143,23.25Q11.3143,22.8125,11.6036,22.53125Q11.8929,22.25,12.3429,22.25L12.4714,22.25Q12.8571,22.25,13.1464,22.5L17.6143,26.4062Q18,26.75,18,27.25Q18,27.75,17.6143,28.0937L13.1786,31.9688Q12.8571,32.25,12.4393,32.25Q11.9571,32.25,11.6357,31.9375Q11.3143,31.625,11.3143,31.1562L11.3143,29.75L10.8,29.75L9.25714,29.75Q7.07143,29.6875,5.625,28.2812Q4.17857,26.875,4.11429,24.75Q4.14643,23.34375,4.78929,22.40625Q5.43214,21.46875,6.17143,20.96875Q6.46071,20.78125,6.71786,20.625Q6.91071,20.5,7.07143,20.40625Q7.26429,20.34375,7.36071,20.28125Q7.45714,20.25,7.58571,20.25L7.65,20.25Q8.19643,20.3125,8.22857,20.8125Q8.19643,21.1875,7.84286,21.40625Q7.84286,21.4375,7.84286,21.4375L7.81071,21.4375Q7.74643,21.5,7.65,21.5625L7.65,21.59375Q7.61786,21.625,7.58571,21.65625Q7.55357,21.6875,7.55357,21.6875Q7.52143,21.71875,7.48928,21.75Q7.425,21.84375,7.32857,22Q7.2,22.28125,7.2,22.71875Q7.23214,23.5625,7.81071,24.15625Q8.42143,24.71875,9.32143,24.75L9.77143,24.75L10.8,24.75ZM2.31429,31.25Q1.31786,31.2187,0.675,30.5938Q0.0321429,29.9688,0,29L0,18.5Q0.0321429,17.53125,0.675,16.90625Q1.31786,16.28125,2.31429,16.25L13.1143,16.25Q14.1107,16.28125,14.7536,16.90625Q15.3964,17.53125,15.4286,18.5L15.4286,20.5Q15.3643,21.1875,14.6571,21.25Q13.95,21.1875,13.8857,20.5L13.8857,18.5Q13.8214,17.8125,13.1143,17.75L2.31429,17.75Q1.60714,17.8125,1.54286,18.5L1.54286,29Q1.60714,29.6875,2.31429,29.75L4.37143,29.75Q5.07857,29.8125,5.14286,30.5Q5.07857,31.1875,4.37143,31.25L2.31429,31.25Z" fill="#6B7280" fill-opacity="1" style="mix-blend-mode:passthrough"/></g></g></g></g></svg>