<svg xmlns="http://www.w3.org/2000/svg" xmlns:xlink="http://www.w3.org/1999/xlink" fill="currentColor" version="1.1" width="22.5" height="28" viewBox="0 0 22.5 28"><defs><clipPath id="master_svg0_148_7830"><rect x="0" y="4" width="22.5" height="20" rx="0"/></clipPath></defs><g><rect x="0" y="0" width="22.5" height="28" rx="0" fill="#000000" fill-opacity="0" style="mix-blend-mode:passthrough"/><g clip-path="url(#master_svg0_148_7830)"><g transform="matrix(1,0,0,-1,0,48.85939025878906)"><g><path d="M22.461,34.42969512939453Q22.422,33.92188512939453,22.0711,33.57032512939453Q21.7201,33.21875512939453,21.2132,33.17969512939453L19.9653,33.17969512939453L20.0043,26.92969512939453Q19.9653,26.77344512939453,19.9653,26.61719512939453L19.9653,25.99219512939453Q19.9653,25.32813312939453,19.4974,24.89844512939453Q19.0685,24.42969512939453,18.4055,24.42969512939453L17.7816,24.42969512939453Q17.7036,24.42969512939453,17.6646,24.42969512939453Q17.5867,24.42969512939453,17.5087,24.42969512939453L16.2218,24.42969512939453L15.286,24.42969512939453Q14.623,24.42969512939453,14.1941,24.89844512939453Q13.7262,25.32813312939453,13.7262,25.99219512939453L13.7262,26.92969512939453L13.7262,29.42969512939453Q13.7262,29.976575129394533,13.3752,30.328135129394532Q13.0243,30.67969512939453,12.4783,30.67969512939453L9.98267,30.67969512939453Q9.43674,30.67969512939453,9.08579,30.328135129394532Q8.73484,29.976575129394533,8.73484,29.42969512939453L8.73484,26.92969512939453L8.73484,25.99219512939453Q8.73484,25.32813312939453,8.2669,24.89844512939453Q7.83795,24.42969512939453,7.17504,24.42969512939453L6.23917,24.42969512939453L4.99133,24.42969512939453Q4.95234,24.42969512939453,4.91334,24.42969512939453Q4.87435,24.42969512939453,4.83536,24.42969512939453Q4.75737,24.42969512939453,4.67938,24.42969512939453L4.05546,24.42969512939453Q3.39255,24.42969512939453,2.9636,24.89844512939453Q2.49567,25.32813312939453,2.49567,25.99219512939453L2.49567,30.36719512939453Q2.49567,30.40625512939453,2.49567,30.484385129394532L2.49567,33.17969512939453L1.24783,33.17969512939453Q0.701906,33.21875512939453,0.350953,33.57032512939453Q0,33.92188512939453,0,34.46879512939453Q0,34.97659512939453,0.389948,35.40629512939453L10.3726,44.11719512939453Q10.8016,44.468795129394536,11.2305,44.42969512939453Q11.6984,44.42969512939453,12.0494,44.156295129394536L22.0321,35.36719512939453Q22.5,34.97659512939453,22.461,34.42969512939453Z" fill="current" fill-opacity="1" style="mix-blend-mode:passthrough"/></g></g></g></g></svg>