<svg xmlns="http://www.w3.org/2000/svg" xmlns:xlink="http://www.w3.org/1999/xlink" fill="none" version="1.1" width="20" height="28" viewBox="0 0 20 28"><defs><clipPath id="master_svg0_148_7840"><rect x="0" y="4" width="19.0625" height="20" rx="0"/></clipPath></defs><g><rect x="0" y="0" width="20" height="28" rx="0" fill="#000000" fill-opacity="0" style="mix-blend-mode:passthrough"/><g clip-path="url(#master_svg0_148_7840)"><g transform="matrix(1,0,0,-1,0,48.859375)"><g><path d="M18.906207074737548,37.9062875Q19.06250707473755,37.3593875,18.67190707473755,36.9687875L16.95310707473755,35.4062875Q17.031207074737548,34.9374875,17.031207074737548,34.4296875Q17.031207074737548,33.9218775,16.95310707473755,33.4531275L18.67190707473755,31.8906275Q19.06250707473755,31.4999975,18.906207074737548,30.9531275Q18.63280707473755,30.2499975,18.281207074737548,29.5859375L18.08590707473755,29.2734375Q17.69530707473755,28.6484375,17.226607074737547,28.0624975Q16.83590707473755,27.6328075,16.289107074737547,27.7890675L14.101607074737549,28.4921875Q13.32030707473755,27.8671875,12.38280707473755,27.5156275L11.914107074737549,25.2499995Q11.75780707473755,24.7031255,11.171907074737549,24.5859375Q10.390607074737549,24.4296875,9.531247074737548,24.4296875Q8.671877074737548,24.4296875,7.851557074737549,24.5859375Q7.304687074737549,24.7031255,7.148437074737549,25.2499995L6.679687074737549,27.5156275Q5.742187074737549,27.8671875,4.960937074737549,28.4921875L2.773437074737549,27.7890675Q2.226567074737549,27.6328075,1.8359370747375487,28.0624975Q1.3281270747375489,28.6484375,0.9765620747375489,29.2734375L0.7812500747375488,29.5859375Q0.4296870747375488,30.2499975,0.1562499747375488,30.9140675Q7.473754883025041e-8,31.4999975,0.3906250747375488,31.8906275L2.109377074737549,33.4140675Q2.031247074737549,33.9218775,2.031247074737549,34.4296875Q2.031247074737549,34.9374875,2.109377074737549,35.4062875L0.3906250747375488,36.9687875Q7.473754883025041e-8,37.3593875,0.1562499747375488,37.9062875Q0.4296870747375488,38.6093875,0.7812500747375488,39.2734875L0.9765620747375489,39.5858875Q1.3281270747375489,40.2108875,1.8359370747375487,40.7968875Q2.226567074737549,41.2265875,2.773437074737549,41.0702875L4.960937074737549,40.3671875Q5.742187074737549,40.9921875,6.679687074737549,41.3827875L7.148437074737549,43.6093875Q7.304687074737549,44.156287500000005,7.890627074737549,44.2734875Q8.671877074737548,44.4296875,9.531247074737548,44.4296875Q10.390607074737549,44.4296875,11.210907074737548,44.2734875Q11.75780707473755,44.156287500000005,11.914107074737549,43.6093875L12.38280707473755,41.3827875Q13.32030707473755,40.9921875,14.101607074737549,40.3671875L16.289107074737547,41.0702875Q16.83590707473755,41.2265875,17.226607074737547,40.7968875Q17.73440707473755,40.2108875,18.12500707473755,39.5858875L18.281207074737548,39.2734875Q18.63280707473755,38.6093875,18.906207074737548,37.9062875ZM9.531247074737548,31.3046875Q11.289107074737549,31.3437475,12.226607074737549,32.8671875Q13.085907074737548,34.4296875,12.226607074737549,35.9921875Q11.289107074737549,37.5155875,9.531247074737548,37.5546875Q7.773437074737549,37.5155875,6.835937074737549,35.9921875Q5.976557074737549,34.4296875,6.835937074737549,32.8671875Q7.773437074737549,31.3437475,9.531247074737548,31.3046875Z" fill="#6B7280" fill-opacity="1" style="mix-blend-mode:passthrough"/></g></g></g></g></svg>